<?xml version="1.0" encoding="UTF-8" standalone="no"?>
<!-- Uploaded to: SVG Repo, www.svgrepo.com, Generator: SVG Repo Mixer Tools -->

<svg
   version="1.1"
   id="Layer_1"
   viewBox="0 0 512.03004 512.03004"
   xml:space="preserve"
   xmlns="http://www.w3.org/2000/svg"
   xmlns:svg="http://www.w3.org/2000/svg"><defs
   id="defs7" />
<g
   id="g2">
	<path
   style="fill:#2d58a0;fill-opacity:1"
   d="m 94.995,217.954 c 0,0 -91.66,79.534 -91.878,79.737 -4.156,4.172 -4.156,10.922 0,15.094 2.188,2.156 5.032,3.188 7.875,3.109 v 0 l 105.285,-10.656 112.441,-112.66 z"
   id="path1" />
	<path
   style="fill:#2d58a0;fill-opacity:1"
   d="m 294.065,417.038 c 0,0 -79.533,91.645 -79.752,91.848 -4.156,4.172 -10.907,4.172 -15.063,0 -2.156,-2.156 -3.188,-5.016 -3.125,-7.844 v 0 L 206.782,395.741 319.442,283.3 Z"
   id="path2" />
</g>
<polygon
   style="fill:#434a54"
   points="161.53,410.835 101.184,350.49 101.184,290.144 221.875,410.835 "
   id="polygon2" />
<path
   style="fill:#e6e9ed"
   d="M 506.229,5.806 C 449.289,-9.398 386.006,5.337 341.348,49.994 L 101.184,290.144 221.875,410.835 462.04,170.686 C 506.698,126.013 521.449,62.745 506.229,5.806 Z"
   id="path3" />
<g
   id="g5">
	<path
   style="fill:#2d58a0;fill-opacity:1"
   d="M 497.885,118.138 C 513.354,82.59 516.136,42.854 506.229,5.806 469.166,-4.085 429.446,-1.304 393.913,14.15 Z"
   id="path4" />
	<path
   style="fill:#2d58a0;fill-opacity:1"
   d="m 252.033,275.065 c 4.188,-4.172 4.156,-10.923 0,-15.079 -4.156,-4.171 -10.938,-4.156 -15.095,0.016 l -135.754,135.74 c -4.157,4.172 -4.157,10.922 0,15.094 4.156,4.156 10.938,4.156 15.094,0 v 0 z"
   id="path5" />
</g>
<path
   style="fill:#434a54"
   d="m 365.193,207.188 c -16.688,16.657 -43.688,16.657 -60.346,0 -16.657,-16.672 -16.657,-43.689 0,-60.346 16.657,-16.673 43.657,-16.673 60.346,0 16.657,16.657 16.657,43.673 0,60.346 z"
   id="path6" />
<path
   style="fill:#ccd1d9"
   d="m 335.004,230.345 c -14.25,0 -27.626,-5.547 -37.721,-15.625 -10.062,-10.063 -15.594,-23.47 -15.594,-37.705 0,-14.25 5.531,-27.642 15.594,-37.72 10.095,-10.079 23.471,-15.625 37.721,-15.625 14.25,0 27.657,5.547 37.721,15.625 10.062,10.079 15.625,23.47 15.625,37.72 0,14.235 -5.562,27.642 -15.625,37.705 -10.064,10.078 -23.471,15.625 -37.721,15.625 z m 0,-85.331 c -8.531,0 -16.594,3.329 -22.626,9.375 -6.031,6.032 -9.375,14.079 -9.375,22.626 0,8.547 3.344,16.579 9.375,22.625 6.032,6.047 14.095,9.375 22.626,9.375 8.562,0 16.594,-3.328 22.626,-9.375 6.062,-6.047 9.376,-14.079 9.376,-22.625 0,-8.547 -3.313,-16.594 -9.376,-22.626 -6.032,-6.047 -14.063,-9.375 -22.626,-9.375 z"
   id="path7" />
</svg>
