<svg fill="#ffffff" version="1.1" id="Layer_1" xmlns="http://www.w3.org/2000/svg" xmlns:xlink="http://www.w3.org/1999/xlink" 
	viewBox="0 0 512.003 512.003" xml:space="preserve">
<g>
	<g>
		<path d="M437.02,74.981C388.669,26.628,324.382,0,256.002,0S123.335,26.628,74.984,74.98C26.631,123.333,0.002,187.619,0.002,256
			c0,0.017,0.002,0.033,0.002,0.049c0.001,0.349,0.019,0.699,0.052,1.047c0.017,0.17,0.048,0.335,0.072,0.503
			c0.028,0.191,0.05,0.384,0.088,0.574c0.037,0.187,0.089,0.37,0.135,0.553c0.042,0.168,0.079,0.337,0.129,0.504
			c0.055,0.179,0.121,0.352,0.185,0.528c0.06,0.167,0.116,0.336,0.184,0.501c0.067,0.162,0.146,0.317,0.22,0.475
			c0.081,0.173,0.157,0.345,0.247,0.514c0.079,0.148,0.169,0.288,0.255,0.431c0.1,0.168,0.196,0.339,0.306,0.503
			c0.102,0.153,0.217,0.296,0.326,0.444c0.107,0.144,0.207,0.292,0.323,0.431c0.199,0.244,0.413,0.474,0.632,0.7
			c0.036,0.037,0.066,0.077,0.102,0.114l244.87,244.87c0.018,0.018,0.037,0.032,0.055,0.049c0.039,0.039,0.078,0.077,0.118,0.115
			c0.092,0.089,0.191,0.171,0.287,0.257c0.12,0.108,0.237,0.219,0.362,0.322c0.039,0.031,0.08,0.059,0.119,0.091
			c0.028,0.022,0.052,0.047,0.08,0.069c0.086,0.068,0.177,0.125,0.265,0.189c0.12,0.088,0.238,0.178,0.361,0.262
			c0.046,0.03,0.089,0.063,0.135,0.092c0.101,0.066,0.206,0.122,0.308,0.185c0.129,0.079,0.257,0.158,0.388,0.232
			c0.055,0.03,0.108,0.063,0.162,0.092c0.094,0.05,0.19,0.091,0.284,0.138c0.003,0.001,0.006,0.002,0.009,0.004
			c0.125,0.062,0.248,0.125,0.375,0.183c0.087,0.039,0.174,0.078,0.262,0.115c0.096,0.04,0.193,0.076,0.291,0.114
			c0.105,0.04,0.209,0.082,0.316,0.12c0.119,0.042,0.239,0.079,0.359,0.117c0.096,0.03,0.19,0.059,0.286,0.087
			c0.083,0.023,0.166,0.049,0.25,0.07c0.154,0.04,0.307,0.071,0.462,0.105c0.094,0.02,0.187,0.043,0.282,0.061
			c0.058,0.011,0.116,0.023,0.175,0.032c0.197,0.033,0.395,0.056,0.594,0.079c0.085,0.01,0.168,0.026,0.252,0.033
			c0.029,0.002,0.058,0.006,0.087,0.008c0.315,0.027,0.63,0.042,0.945,0.042H256h0.002h0.001h0.001c0.316,0,0.631-0.014,0.945-0.041
			c0.029-0.002,0.058-0.006,0.088-0.009c0.082-0.008,0.165-0.023,0.247-0.032c0.199-0.023,0.398-0.046,0.598-0.079
			c0.059-0.01,0.118-0.022,0.177-0.033c0.092-0.018,0.182-0.04,0.275-0.06c0.156-0.033,0.312-0.065,0.466-0.105
			c0.086-0.022,0.17-0.048,0.255-0.071c0.092-0.027,0.184-0.055,0.276-0.083c0.122-0.038,0.245-0.076,0.366-0.118
			c0.109-0.039,0.216-0.081,0.324-0.124c0.092-0.036,0.185-0.07,0.276-0.108c0.09-0.038,0.18-0.077,0.269-0.117
			c0.126-0.057,0.248-0.119,0.372-0.18c0.016-0.008,0.03-0.014,0.046-0.022c0.081-0.04,0.164-0.076,0.244-0.118
			c0.058-0.031,0.114-0.066,0.171-0.097c0.13-0.072,0.257-0.15,0.384-0.228c0.106-0.065,0.213-0.122,0.316-0.19
			c0.042-0.028,0.083-0.058,0.125-0.087c0.125-0.083,0.244-0.175,0.365-0.264c0.088-0.065,0.179-0.122,0.265-0.189
			c0.029-0.022,0.055-0.048,0.082-0.071c0.038-0.03,0.077-0.056,0.114-0.087c0.126-0.102,0.243-0.216,0.364-0.324
			c0.096-0.086,0.195-0.168,0.287-0.257c0.04-0.038,0.079-0.077,0.118-0.116c0.018-0.018,0.037-0.031,0.055-0.049l244.87-244.87
			c0.037-0.037,0.067-0.077,0.102-0.114c0.218-0.228,0.432-0.459,0.631-0.702c0.115-0.139,0.215-0.287,0.323-0.431
			c0.109-0.148,0.224-0.291,0.326-0.444c0.11-0.165,0.206-0.335,0.306-0.503c0.086-0.144,0.176-0.284,0.255-0.431
			c0.09-0.169,0.167-0.343,0.248-0.515c0.073-0.157,0.152-0.312,0.219-0.472c0.069-0.166,0.125-0.336,0.185-0.504
			c0.062-0.175,0.129-0.347,0.184-0.525c0.05-0.167,0.087-0.336,0.129-0.504c0.047-0.184,0.098-0.366,0.135-0.553
			c0.038-0.19,0.06-0.383,0.088-0.574c0.025-0.168,0.056-0.333,0.072-0.503c0.034-0.348,0.051-0.698,0.052-1.047
			c0-0.017,0.002-0.032,0.002-0.049C512.001,187.62,485.373,123.334,437.02,74.981z M256.002,22.261
			c113.017,0,207.558,80.629,229.123,187.385c-9.525-5.875-20.951-9.298-33.228-9.298c-20.179,0-38.068,9.255-48.974,23.423
			c-10.906-14.168-28.794-23.423-48.974-23.423c-20.179,0-38.068,9.255-48.974,23.423c-10.906-14.168-28.794-23.423-48.974-23.423
			s-38.068,9.255-48.974,23.423c-10.906-14.168-28.794-23.423-48.974-23.423s-38.068,9.255-48.974,23.423
			c-10.906-14.168-28.794-23.423-48.974-23.423c-12.277,0-23.702,3.424-33.228,9.298C48.444,102.89,142.985,22.261,256.002,22.261z
			M22.586,251.711c2.394-16.393,18.302-29.103,37.521-29.103c20.867,0,37.843,14.979,37.843,33.391c0,0.068,0.009,0.132,0.01,0.199
			c0.003,0.225,0.017,0.45,0.034,0.674c0.011,0.148,0.023,0.296,0.04,0.442c0.025,0.208,0.058,0.416,0.096,0.623
			c0.029,0.163,0.058,0.325,0.093,0.485c0.04,0.181,0.089,0.361,0.139,0.54c0.05,0.183,0.102,0.365,0.161,0.544
			c0.051,0.153,0.108,0.303,0.166,0.454c0.077,0.2,0.156,0.4,0.244,0.594c0.059,0.13,0.122,0.259,0.187,0.388
			c0.102,0.207,0.21,0.41,0.325,0.61c0.032,0.056,0.058,0.115,0.091,0.17l100.404,167.342L22.586,251.711z M120.357,253.162
			c1.64-17.087,17.916-30.553,37.698-30.553c20.843,0,37.802,14.945,37.841,33.327c0,0.007,0.001,0.013,0.001,0.019
			c0,0.016,0.001,0.03,0.001,0.046c0,0.059,0.008,0.116,0.009,0.175c0.006,0.306,0.016,0.612,0.047,0.92
			c0.031,0.322,0.082,0.638,0.14,0.951c0.009,0.046,0.011,0.091,0.02,0.137l0.002,0.013c0.006,0.029,0.011,0.058,0.018,0.087
			l36.352,181.761L120.357,253.162z M256.002,444.115l-37.816-189.078c0.581-17.968,17.315-32.429,37.816-32.429
			s37.235,14.461,37.816,32.429L256.002,444.115z M315.871,258.283c0.006-0.029,0.011-0.058,0.018-0.087l0.002-0.013
			c0.009-0.046,0.011-0.091,0.02-0.137c0.058-0.313,0.109-0.629,0.14-0.951c0.031-0.308,0.041-0.615,0.047-0.92
			c0.001-0.059,0.009-0.116,0.009-0.175c0-0.016,0.001-0.03,0.001-0.046c0-0.007,0-0.013,0-0.02
			c0.04-18.381,17-33.326,37.842-33.326c19.782,0,36.058,13.466,37.698,30.553L279.519,440.044L315.871,258.283z M312.064,429.067
			l100.404-167.341c0.033-0.056,0.058-0.115,0.091-0.17c0.115-0.199,0.223-0.403,0.325-0.61c0.065-0.129,0.128-0.258,0.187-0.388
			c0.088-0.195,0.167-0.394,0.244-0.594c0.058-0.151,0.116-0.302,0.166-0.454c0.059-0.179,0.111-0.361,0.161-0.544
			c0.05-0.179,0.099-0.359,0.139-0.54c0.036-0.16,0.065-0.323,0.094-0.485c0.037-0.208,0.07-0.415,0.096-0.623
			c0.018-0.147,0.029-0.294,0.04-0.442c0.018-0.225,0.03-0.45,0.034-0.675c0.001-0.067,0.01-0.132,0.01-0.199
			c0-18.412,16.976-33.391,37.844-33.391c19.219,0,35.127,12.71,37.521,29.103L312.064,429.067z"/>
	</g>
</g>
<g>
	<g>
		<path d="M392.803,93.806l-0.166-0.149c-4.577-4.105-11.602-3.71-15.706,0.867c-4.104,4.577-3.709,11.625,0.868,15.728
			c2.134,1.947,4.821,2.907,7.499,2.907c3.02,0,6.029-1.222,8.227-3.63C397.667,104.989,397.344,97.95,392.803,93.806z"/>
	</g>
</g>
<g>
	<g>
		<path d="M361.833,72.87c-32.024-18.546-68.62-28.348-105.83-28.348c-6.147,0-11.13,4.984-11.13,11.13
			c0,6.146,4.983,11.13,11.13,11.13c33.298,0,66.036,8.766,94.675,25.35c1.756,1.017,3.674,1.501,5.567,1.501
			c3.841,0,7.579-1.991,9.642-5.555C368.968,82.759,367.153,75.951,361.833,72.87z"/>
	</g>
</g>
</svg>  